<?xml version="1.0" encoding="UTF-8"?>
<svg width="900px" height="900px" viewBox="0 0 36 36" version="1.1" xmlns="http://www.w3.org/2000/svg" xmlns:xlink="http://www.w3.org/1999/xlink" style="background: #FBFBFB;">
    <!-- Generator: Sketch 47.1 (45422) - http://www.bohemiancoding.com/sketch -->
    <defs></defs>
    <g id="Page-1" stroke="none" stroke-width="1" fill="none" fill-rule="evenodd">
        <g id="Artboard" fill-rule="nonzero">
            <path d="M12.6121702,13.831117 C10.8769518,11.8958874 9.20470364,11.0846786 7.59542574,11.3974905 C5.18150891,11.8667084 3.64150915,14.4385759 5.37487726,17.5104261 C7.10824537,20.5822762 10.8096004,22.1353276 14.7314531,24.7817794 C17.3789516,20.858375 20.2668425,17.875918 20.7033633,14.5308702 C21.1398841,11.1858224 18.7421244,9.23079181 16.3282075,9.70000971 C14.7189296,10.0128216 13.4802505,11.3898574 12.6121702,13.831117 Z" id="Path-4" fill="#36a496"></path>
            <path d="M23.4238143,17.087655 C22.6257422,14.6139579 21.4280158,13.1927171 19.8306352,12.8239328 C17.4345644,12.2707562 14.9816318,13.9938998 15.3157084,17.5051988 C15.6497849,21.0164979 18.3994581,23.9407576 20.9058399,27.9535729 C24.9202424,25.4461993 28.7715366,23.8962003 30.5308717,21.0178961 C32.2902068,18.1395919 30.8949269,15.3783258 28.498856,14.8251492 C26.9014754,14.4563649 25.2097949,15.2105334 23.4238143,17.087655 Z" id="Path-4-Copy" fill="#16c852"></path>
        </g>
    </g>
</svg>